<svg width="230" height="230" viewBox="0 0 230 230" fill="none" xmlns="http://www.w3.org/2000/svg">
<path fill-rule="evenodd" clip-rule="evenodd" d="M229.846 121.003C229.689 124.053 229.413 127.071 229.024 130.054L99.9459 0.976459C102.929 0.586489 105.947 0.310813 108.997 0.153972L229.846 121.003ZM89.3079 2.88073C92.3936 2.17656 95.5266 1.59651 98.7013 1.1461L228.854 131.299C228.403 134.473 227.823 137.606 227.119 140.692L89.3079 2.88073ZM221.374 158.778C222.346 156.419 223.241 154.021 224.058 151.587L78.413 5.94233C75.9788 6.75862 73.5809 7.65413 71.2225 8.62579L221.374 158.778ZM70.2248 9.04234C67.6468 10.1331 65.1169 11.3152 62.639 12.5846L217.415 167.361C218.685 164.883 219.867 162.353 220.958 159.775L70.2248 9.04234ZM227.789 92.4474C226.881 87.88 225.703 83.4101 224.271 79.055L150.945 5.72916C146.59 4.29739 142.12 3.11871 137.553 2.21054L227.789 92.4474ZM135.805 1.87714C131.637 1.11555 127.391 0.578628 123.079 0.279389L229.721 106.921C229.421 102.609 228.884 98.3628 228.123 94.195L135.805 1.87714ZM230 115C230 116.558 229.969 118.108 229.908 119.65L110.35 0.0923057C111.892 0.0309626 113.442 0 115 0C117.205 0 119.396 0.0620615 121.57 0.184533L229.815 108.43C229.938 110.604 230 112.795 230 115ZM226.851 141.839C226.148 144.779 225.333 147.676 224.408 150.524L79.4764 5.59152C82.3243 4.66748 85.221 3.85155 88.1615 3.14856L226.851 141.839ZM213.693 55.935C217.647 62.5275 220.959 69.5489 223.543 76.9129L153.087 6.45699C160.451 9.04086 167.473 12.3529 174.065 16.3068L213.693 55.935ZM61.7074 13.0672C59.2931 14.332 56.9293 15.6801 54.6199 17.1076L212.892 175.38C214.32 173.071 215.668 170.707 216.933 168.293L61.7074 13.0672ZM212.349 176.251L53.7492 17.6512C51.7409 18.9174 49.7746 20.2441 47.8528 21.6286L208.371 182.147C209.756 180.225 211.083 178.259 212.349 176.251ZM207.776 182.966L47.0339 22.2239C44.9023 23.7882 42.8265 25.4242 40.8102 27.1282L202.872 189.19C204.576 187.173 206.212 185.098 207.776 182.966ZM177.851 18.6788C191.187 27.3985 202.602 38.8129 211.321 52.1488L177.851 18.6788ZM202.221 189.953L40.0468 27.7791C38.0555 29.4919 36.1236 31.2717 34.2544 33.115L196.885 195.746C198.728 193.876 200.508 191.944 202.221 189.953ZM196.18 196.455C194.53 198.098 192.832 199.692 191.086 201.234L28.766 38.9145C30.3077 37.1684 31.9017 35.4695 33.5454 33.8203L196.18 196.455ZM184.181 206.872C186.289 205.282 188.34 203.622 190.331 201.894L28.1059 39.6686C26.3781 41.6598 24.7176 43.7111 23.128 45.8188L184.181 206.872ZM183.372 207.477L22.5231 46.6281C20.9372 48.7696 19.4239 50.9681 17.9869 53.2199L176.78 212.013C179.032 210.576 181.23 209.063 183.372 207.477ZM168.754 216.69C166.306 217.987 163.805 219.198 161.255 220.319L9.68098 68.7446C10.8023 66.1952 12.0134 63.6942 13.3104 61.2457L168.754 216.69ZM169.675 216.196L13.8036 60.3247C14.9517 58.2043 16.1645 56.124 17.4393 54.0865L175.913 212.561C173.876 213.836 171.796 215.048 169.675 216.196ZM160.269 220.747L9.25281 69.7306C8.12558 72.3603 7.09357 75.0406 6.16113 77.767L152.233 223.839C154.959 222.906 157.64 221.874 160.269 220.747ZM151.175 224.195C148.666 225.026 146.119 225.772 143.538 226.431L3.56854 86.4625C4.22778 83.8806 4.97438 81.3337 5.80502 78.8251L151.175 224.195ZM133.141 228.577C136.273 228.081 139.363 227.458 142.406 226.714L3.28579 87.5939C2.54191 90.6366 1.91911 93.7267 1.42275 96.8589L133.141 228.577ZM0.199028 108.177C0.398299 104.772 0.745797 101.405 1.23517 98.0855L131.914 228.765C128.595 229.254 125.228 229.602 121.823 229.801L0.199028 108.177ZM0.128226 109.521L120.479 229.872C118.663 229.957 116.837 230 115 230C113.544 230 112.095 229.973 110.653 229.919L0.0806481 119.347C0.027041 117.905 0 116.456 0 115C0 113.163 0.0430602 111.337 0.128226 109.521ZM1.72369 134.947L95.0532 228.276C90.026 227.397 85.111 226.192 80.3309 224.682L5.31799 149.669C3.80849 144.889 2.60284 139.974 1.72369 134.947ZM6.00347 151.769C8.38729 158.838 11.4395 165.6 15.0851 171.978L58.0216 214.915C64.4004 218.56 71.162 221.613 78.2312 223.997L6.00347 151.769ZM17.1645 175.472C26.5543 190.631 39.3689 203.446 54.5279 212.835L17.1645 175.472Z" fill="url(#paint0_linear_37_196)" fill-opacity="0.4"/>
<defs>
<linearGradient id="paint0_linear_37_196" x1="46.4035" y1="25.2193" x2="180.57" y2="209.32" gradientUnits="userSpaceOnUse">
<stop stop-color="#ED7B50"/>
<stop offset="0.541667" stop-color="#488AEA"/>
<stop offset="1" stop-color="#2C2C2C"/>
</linearGradient>
</defs>
</svg>
